<svg width="40" height="40" viewBox="0 0 40 40" fill="none" xmlns="http://www.w3.org/2000/svg">
<path d="M2.5 21.0269C2.5 20.3423 2.5 19.6577 2.5 18.9731C2.51712 18.8533 2.5428 18.7335 2.55993 18.6137C2.67122 17.8607 2.73114 17.099 2.8938 16.3545C3.80981 12.1528 5.96715 8.71273 9.3915 6.11983C13.6548 2.89367 18.4489 1.82399 23.6796 2.91078C27.8659 3.78364 31.2645 5.97435 33.867 9.3631C36.675 13.0171 37.8478 17.1761 37.4112 21.7543C37.0517 25.4597 35.6135 28.7372 33.1394 31.5355C30.4256 34.599 27.0526 36.5073 23.0118 37.2262C22.3527 37.346 21.6849 37.4059 21.0257 37.5C20.3409 37.5 19.656 37.5 18.9711 37.5C18.8855 37.4829 18.7999 37.4487 18.7057 37.4401C15.9663 37.2433 13.4066 36.4646 11.0694 35.0355C6.53217 32.2543 3.74133 28.258 2.76539 23.0122C2.6541 22.3533 2.58561 21.6858 2.5 21.0269ZM20.007 5.0587C11.78 5.0587 5.09394 11.7335 5.05114 19.9829C5.0169 28.1895 11.7629 34.9413 19.9984 34.9413C28.2169 34.9413 34.9115 28.2665 34.9543 20.0171C34.9885 11.8105 28.2425 5.0587 20.007 5.0587Z" fill="#5EECFF" stroke="#5EECFF"/>
<path d="M20.2119 20.0052C20.3945 20.0052 20.5223 20.0052 20.6502 20.0052C22.4581 20.0052 24.266 20.0052 26.083 20.0052C26.6674 20.0052 27.1148 20.2565 27.3613 20.7506C27.5988 21.2196 27.5348 21.6886 27.1422 22.0487C26.9231 22.2497 26.5761 22.3502 26.2748 22.4758C26.1743 22.5177 26.0374 22.4925 25.9095 22.4925C23.6268 22.4925 21.3441 22.4925 19.0614 22.4925C18.0113 22.4925 17.5 22.0152 17.5 21.0521C17.5 18.2298 17.5 15.4159 17.5 12.5936C17.5 11.6641 18.3218 11.0611 19.2349 11.3039C19.8466 11.4631 20.2119 11.9404 20.2119 12.5936C20.2119 14.7543 20.2119 16.915 20.2119 19.0757C20.2119 19.3771 20.2119 19.6619 20.2119 20.0052Z" fill="#5EECFF" stroke="#5EECFF"/>
</svg>
